<svg width="512" height="512" viewBox="0 0 512 512" fill="none" xmlns="http://www.w3.org/2000/svg">
<rect width="512" height="512" fill="white"/>
<path fill-rule="evenodd" clip-rule="evenodd" d="M249.933 104V288.19C249.933 354.359 195.571 408 128.511 408H48L83.5816 371.989H129.625C169.701 371.989 203.993 343.754 211.259 304.98L211.471 303.802H48V163.905C48 130.82 75.1813 104 108.711 104H249.933ZM472 104V288.19C472 354.359 417.637 408 350.578 408H270.067L305.648 371.989H351.692C391.768 371.989 426.06 343.754 433.325 304.98L433.537 303.802H270.067V163.905C270.067 130.82 297.248 104 330.778 104H472ZM212.581 142.334H113.015C98.4958 142.334 86.6822 153.763 86.3108 168.001L86.3018 168.692V266.936H212.581V142.334ZM434.648 142.334H335.081C320.562 142.334 308.749 153.763 308.377 168.001L308.368 168.692V266.936H434.648V142.334ZM185.868 169.89V241.776H113.015V181.871C113.015 175.254 118.451 169.89 125.157 169.89H185.868ZM407.935 169.89V241.776H335.081V181.871C335.081 175.254 340.518 169.89 347.224 169.89H407.935Z" fill="#191C20"/>
</svg>
